<?xml version="1.0" standalone="no"?>
<!DOCTYPE svg PUBLIC "-//W3C//DTD SVG 20010904//EN"
 "http://www.w3.org/TR/2001/REC-SVG-20010904/DTD/svg10.dtd">
<svg version="1.0" xmlns="http://www.w3.org/2000/svg"
 width="2201.000000pt" height="2065.000000pt" viewBox="0 0 2201.000000 2065.000000"
 preserveAspectRatio="xMidYMid meet">

<g transform="translate(0.000000,2065.000000) scale(0.100000,-0.100000)"
fill="#000000" stroke="none">
<path d="M12015 20345 c-353 -58 -668 -206 -938 -440 -338 -294 -582 -750
-651 -1213 -7 -51 -16 -96 -20 -99 -10 -10 -7 195 4 308 9 85 33 221 67 377 5
21 2 22 -48 22 -78 0 -251 -26 -342 -50 -375 -100 -713 -367 -899 -711 -91
-169 -188 -458 -188 -563 0 -22 -3 -27 -11 -19 -16 16 5 324 31 455 11 57 20
106 20 111 0 20 -221 -10 -395 -55 -581 -149 -1057 -540 -1315 -1080 -179
-375 -229 -856 -133 -1288 75 -339 273 -702 526 -967 97 -102 76 -95 -45 14
-251 226 -442 496 -559 790 -30 76 -109 369 -109 405 0 31 -23 30 -115 -7
-471 -189 -843 -610 -973 -1100 -78 -292 -70 -655 18 -895 139 -378 411 -689
759 -868 181 -94 350 -147 561 -178 l95 -14 -130 5 c-549 18 -1077 332 -1370
814 l-37 61 -35 -42 c-61 -73 -144 -207 -184 -297 -124 -280 -138 -593 -41
-881 42 -124 84 -201 175 -324 179 -240 449 -401 759 -451 50 -8 94 -17 97
-21 10 -10 -195 6 -282 22 -183 35 -388 124 -533 232 l-81 60 -37 -131 c-115
-421 -166 -730 -166 -1008 0 -283 58 -478 177 -601 45 -46 151 -102 221 -117
399 -83 1064 266 1737 911 l130 125 93 6 c395 28 799 229 1059 528 93 108 236
322 221 333 -2 2 -33 17 -70 34 -37 17 -100 52 -140 78 -82 52 -201 144 -195
150 2 2 30 -5 63 -16 90 -31 322 -86 489 -116 122 -22 182 -27 325 -27 156 -1
188 2 290 26 343 79 427 112 650 258 312 204 516 414 697 716 52 86 136 266
149 318 l7 27 -119 -7 c-344 -20 -709 73 -989 252 -83 53 -194 135 -195 144 0
3 57 -11 128 -33 148 -44 311 -82 449 -104 273 -42 705 -22 974 46 188 48 447
154 592 242 182 111 411 363 560 616 l60 102 89 0 c87 0 89 1 147 40 128 88
302 145 553 184 233 36 356 46 578 46 308 0 558 -28 800 -90 108 -27 255 -76
200 -66 -372 69 -628 81 -980 46 -467 -47 -972 -208 -1035 -331 -21 -40 -19
-113 5 -158 34 -67 132 -137 266 -190 l51 -20 36 24 c44 30 140 68 237 94 383
103 1064 77 1426 -54 72 -26 67 -26 -84 0 -498 88 -1268 -24 -1487 -216 l-35
-31 0 -713 0 -713 -962 -593 c-530 -326 -970 -597 -979 -602 -13 -8 -24 -1
-54 32 -63 69 -172 116 -349 150 -436 84 -1019 23 -1195 -125 -92 -77 -79
-179 31 -247 52 -32 52 -32 121 18 57 41 170 78 305 102 149 26 498 23 656 -6
66 -12 121 -23 123 -24 2 -2 -79 -2 -180 1 -278 7 -567 -38 -736 -113 -111
-50 -105 -32 -112 -366 -3 -158 -8 -291 -11 -294 -3 -4 -25 74 -48 172 -23 98
-45 181 -49 184 -3 4 -134 3 -291 -1 -245 -7 -295 -11 -358 -29 -256 -74 -457
-264 -543 -515 -29 -84 -44 -202 -65 -518 -4 -59 -10 -106 -14 -103 -12 8 -33
386 -28 510 6 131 23 197 84 318 19 37 34 70 34 72 0 8 -96 -38 -175 -83 -260
-150 -506 -397 -628 -632 l-44 -85 -29 -1192 c-16 -656 -30 -1190 -33 -1188
-2 3 -17 514 -33 1137 -15 622 -30 1133 -32 1135 -2 2 -156 -97 -342 -219
-187 -123 -346 -227 -354 -232 -23 -12 9 16 374 329 329 281 339 291 373 360
126 250 376 511 647 673 39 23 64 42 57 42 -7 0 -56 -11 -109 -25 -261 -66
-545 -191 -765 -338 -456 -305 -858 -787 -1048 -1257 l-34 -84 -130 -103 c-71
-56 -402 -316 -735 -576 l-605 -474 -3 -1435 -2 -1434 77 12 c43 7 90 13 106
13 25 1 27 -2 27 -40 0 -70 30 -248 56 -329 42 -133 106 -198 187 -187 79 11
141 103 171 257 46 229 42 516 -9 665 -6 16 -5 17 4 5 21 -29 62 -176 76 -270
20 -137 26 -283 17 -377 l-8 -82 41 -6 c22 -3 57 -6 78 -7 37 -3 40 -6 56 -53
59 -168 141 -235 249 -206 96 25 140 86 183 253 62 243 66 672 8 825 -5 15 -6
24 -1 18 17 -18 49 -117 70 -215 39 -178 52 -426 33 -595 -5 -38 -8 -71 -7
-71 1 -1 186 -16 411 -33 539 -41 499 -35 513 -74 7 -18 30 -56 53 -86 l41
-54 -44 6 c-142 19 -986 90 -1002 84 -11 -5 -15 -11 -10 -16 5 -5 284 -51 619
-104 592 -93 612 -97 690 -133 58 -27 123 -46 234 -68 l154 -30 47 51 c84 92
171 288 230 522 34 134 74 361 86 478 3 40 10 70 14 68 15 -9 22 -367 10 -525
-16 -236 -61 -461 -115 -579 -14 -30 -24 -55 -23 -57 11 -9 841 -135 862 -130
85 21 218 252 306 533 53 172 110 465 136 701 4 42 11 62 20 62 12 0 14 -41
14 -227 0 -250 -10 -395 -40 -578 -27 -163 -86 -371 -131 -463 -21 -42 -36
-78 -35 -79 6 -6 1249 -194 1287 -195 86 -1 206 83 294 206 193 271 353 763
414 1275 11 91 24 200 29 241 7 61 9 29 10 -170 2 -324 -17 -544 -69 -810 -58
-290 -183 -612 -293 -750 l-36 -45 33 -8 c17 -4 421 -66 897 -137 476 -71 886
-134 913 -139 26 -5 47 -5 47 0 0 5 11 9 25 9 14 0 44 9 66 20 215 110 408
559 479 1117 11 86 23 159 25 162 9 9 5 -438 -5 -540 -32 -318 -119 -610 -232
-776 l-36 -52 27 -5 c14 -3 136 -24 271 -46 135 -23 1466 -277 2958 -565 1492
-289 2718 -525 2725 -525 7 0 61 90 122 200 78 143 114 200 127 200 10 0 242
-29 515 -65 782 -101 1305 -166 1310 -162 6 7 -769 262 -977 322 -238 69 -528
141 -632 157 -43 6 -78 15 -78 20 0 5 118 221 262 481 144 260 261 477 261
482 -1 6 -233 505 -516 1110 l-516 1100 435 3 434 2 0 79 c0 70 2 80 20 86 10
3 54 29 96 56 386 252 491 772 234 1162 -99 151 -217 228 -404 264 -205 40
-441 -44 -592 -210 -70 -78 -147 -231 -168 -339 -47 -231 8 -475 149 -667 51
-70 46 -72 -44 -18 -129 77 -255 254 -302 423 -24 85 -32 265 -16 355 11 57
13 56 -132 65 -132 8 -177 -2 -247 -55 -35 -26 -59 -56 -84 -105 -33 -65 -35
-74 -34 -165 0 -76 5 -107 22 -146 l22 -50 -21 25 c-12 14 -35 53 -51 87 -71
150 -37 338 82 462 85 89 179 123 392 142 75 6 140 15 145 18 5 3 24 29 43 56
18 28 51 69 73 93 l41 42 -183 0 -183 0 5 33 c3 17 13 86 23 152 47 344 -51
730 -251 983 -34 43 -82 95 -107 115 -40 33 -53 38 -119 43 -170 15 -336 -59
-538 -240 -47 -42 -86 -74 -88 -72 -9 9 23 108 57 181 41 85 108 171 171 219
21 17 37 31 35 33 -3 3 -1207 -123 -1366 -142 l-45 -6 84 46 c425 231 743 565
962 1010 119 243 197 498 236 780 19 137 22 482 4 620 -62 497 -240 937 -538
1328 -43 56 -141 165 -218 242 -281 282 -593 477 -953 595 -245 80 -429 110
-680 110 -148 0 -217 -6 -400 -36 l-42 -7 2 298 3 298 82 28 c458 154 467 426
18 579 l-80 28 3 45 c3 40 0 50 -32 85 l-36 40 37 28 c133 99 280 256 368 392
97 151 186 376 222 559 10 51 21 93 24 93 4 0 13 -39 19 -87 19 -131 8 -302
-29 -445 -29 -114 -96 -275 -143 -341 l-23 -32 50 29 c87 51 280 184 371 257
643 513 975 1191 903 1847 -22 201 -64 334 -165 514 -149 266 -413 516 -678
642 -275 132 -594 182 -899 141 -102 -13 -316 -65 -361 -86 -21 -10 -21 -10
-1 6 69 57 307 150 479 187 86 19 132 22 311 22 179 0 225 -3 311 -22 128 -28
283 -81 387 -133 43 -22 81 -38 83 -36 8 8 -66 170 -120 261 -306 519 -892
874 -1581 957 -143 17 -435 14 -590 -6 -230 -30 -536 -120 -720 -213 -127 -64
-323 -219 -470 -374 -257 -269 -402 -555 -460 -903 l-14 -90 4 90 c16 308 144
638 357 918 34 44 109 129 165 188 l104 107 -68 55 c-220 176 -478 298 -758
357 -134 28 -402 36 -530 15z m-392 -1228 c-10 -13 -45 -58 -79 -99 -292 -360
-376 -811 -233 -1242 87 -262 283 -515 525 -678 72 -49 54 -48 -52 1 -232 109
-438 313 -548 544 -157 327 -156 730 3 1045 77 152 221 324 346 415 59 43 62
44 38 14z m1432 -1160 c-204 -384 -211 -823 -17 -1201 142 -277 409 -506 710
-606 139 -46 250 -63 414 -64 80 -1 141 -4 135 -8 -35 -19 -179 -38 -295 -38
-210 0 -376 40 -556 133 -277 143 -524 444 -606 737 -85 306 -61 587 75 866
48 99 171 282 181 271 3 -2 -16 -43 -41 -90z m-4015 -381 c0 -3 -41 -33 -92
-68 -287 -196 -482 -473 -566 -805 -25 -100 -27 -123 -27 -308 0 -184 2 -209
27 -306 27 -108 69 -223 113 -309 30 -59 31 -69 5 -45 -69 62 -182 271 -220
405 -120 430 -14 847 294 1156 132 133 287 228 464 283 1 1 2 -1 2 -3z m7140
-3685 c139 -24 262 -59 395 -112 99 -40 257 -122 305 -159 24 -19 23 -19 -40
1 -697 214 -1397 97 -1910 -318 -400 -325 -656 -783 -747 -1338 -22 -138 -25
-523 -5 -660 90 -597 340 -1088 765 -1502 63 -62 113 -113 111 -113 -14 0
-131 66 -209 117 -553 365 -912 968 -995 1673 -15 123 -12 408 4 540 18 141
29 198 61 319 14 52 24 95 23 96 -2 1 -1225 -690 -2718 -1537 -3027 -1716
-2758 -1564 -2745 -1550 6 6 1349 894 2986 1975 1990 1313 2990 1979 3015
2007 59 65 209 187 324 263 253 168 567 282 871 316 122 14 375 5 509 -18z
m98 -462 c458 -49 860 -288 1135 -675 21 -28 37 -54 37 -58 0 -3 -43 31 -96
75 -238 200 -509 337 -799 405 -111 26 -136 28 -330 29 -184 0 -223 -3 -314
-23 -324 -73 -615 -244 -818 -480 -239 -279 -381 -620 -424 -1017 -12 -115 -6
-417 10 -510 5 -27 7 -52 6 -54 -13 -13 -89 224 -117 361 -33 164 -33 463 0
626 134 666 616 1169 1242 1297 166 34 311 42 468 24z m-3268 -2234 c228 -31
423 -59 433 -63 9 -4 -174 -33 -407 -65 l-425 -58 -1257 -590 c-692 -324
-1259 -587 -1261 -586 -2 2 549 324 1224 715 942 545 1234 710 1253 707 14 -3
212 -30 440 -60z m-4279 -902 c16 -219 28 -420 28 -448 l1 -50 -133 -64 c-216
-104 -317 -151 -317 -147 0 2 74 66 163 143 l164 141 5 73 c3 41 16 228 29
416 13 188 25 340 28 338 2 -3 17 -184 32 -402z m5384 -758 c32 -9 86 -30 119
-48 61 -32 185 -141 174 -153 -3 -3 -24 4 -46 15 -119 61 -295 78 -414 41
-115 -35 -248 -143 -335 -270 -88 -130 -168 -338 -203 -530 -27 -148 -37 -399
-21 -544 7 -59 10 -110 8 -112 -7 -8 -83 146 -110 223 -96 266 -81 611 36 884
19 43 33 79 31 79 -2 0 -71 -27 -154 -60 -83 -33 -284 -110 -447 -171 -168
-63 -317 -125 -343 -142 -176 -121 -296 -359 -331 -658 -11 -96 -8 -351 6
-434 8 -53 -34 83 -49 158 -76 372 -15 712 171 949 54 68 139 141 204 174 139
70 638 284 1014 434 149 59 293 118 320 131 108 49 257 63 370 34z m-6900
-435 c27 -553 64 -1685 66 -2023 0 -78 4 -161 7 -183 l7 -41 337 316 336 317
134 53 c435 174 1986 766 2478 946 709 259 1554 556 1579 555 25 -2 -1012
-456 -1759 -770 -355 -149 -1053 -433 -1808 -736 l-532 -214 -462 -420 c-254
-231 -466 -420 -470 -420 -4 0 -8 100 -8 223 0 243 26 1638 35 1887 21 595 26
714 32 790 9 102 9 104 28 -280z m9090 30 c781 -33 1425 -62 1430 -64 6 -3
-10 -5 -35 -6 -218 -6 -2711 -117 -2715 -121 -3 -3 -50 -149 -105 -325 -55
-175 -102 -323 -104 -329 -3 -5 -5 197 -5 451 l-1 460 58 -3 c31 -2 696 -30
1477 -63z m-9495 -193 l0 -72 -416 -258 c-229 -142 -417 -257 -419 -255 -2 3
826 658 832 658 2 0 3 -33 3 -73z m10455 -822 c897 -30 1646 -56 1665 -58 75
-5 -268 -19 -1615 -62 -770 -25 -1419 -48 -1442 -51 l-42 -5 44 -54 c95 -117
145 -273 144 -444 -1 -153 -9 -162 -47 -55 -49 136 -112 236 -211 334 -96 95
-165 140 -273 177 -97 33 -235 41 -337 19 -251 -53 -471 -273 -566 -566 -24
-73 -33 -49 -34 91 l-1 107 -82 6 c-46 4 -102 3 -125 -2 -90 -20 -173 -91
-209 -178 -39 -93 -36 -222 8 -308 l21 -41 -22 19 c-12 11 -36 49 -54 85 -30
62 -32 71 -32 181 0 110 1 118 33 183 81 164 197 229 454 252 l67 6 27 47
c111 192 284 318 500 366 89 20 98 19 2129 -49z m-11592 -983 c7 -512 15 -933
18 -936 3 -3 248 68 544 159 296 91 540 164 541 162 3 -2 -1126 -476 -1198
-503 -16 -5 -18 1 -18 57 0 35 20 489 45 1009 25 520 46 965 46 990 5 146 11
-111 22 -938z m8006 318 c11 -256 23 -556 27 -668 l6 -202 527 6 526 6 55 -46
c30 -25 86 -62 123 -82 38 -20 66 -38 64 -41 -7 -6 -1285 16 -1365 24 l-63 6
5 106 c3 58 8 205 11 326 5 201 24 646 42 985 10 201 18 120 42 -420z m-3058
-22 c-36 -169 -90 -577 -79 -608 2 -6 244 146 538 337 294 192 542 353 550
357 37 22 25 12 -1522 -1213 -136 -107 -246 -196 -245 -197 1 -2 97 2 212 8
l210 11 118 116 117 116 0 -108 c0 -104 1 -107 22 -107 13 0 108 5 211 11 103
6 190 9 192 7 5 -5 -22 -255 -30 -276 -3 -10 -325 -12 -1582 -10 l-1578 3 -3
51 c-4 61 2 64 114 64 39 0 85 3 101 6 l30 6 12 106 c25 223 90 462 166 611
66 130 62 146 58 -290 -2 -217 0 -399 4 -406 7 -10 95 -7 400 9 l391 22 7 96
c27 393 115 737 247 968 16 29 32 51 34 49 2 -2 -2 -62 -11 -133 -23 -204 -35
-453 -35 -719 l0 -245 53 0 c28 0 68 5 87 10 19 6 233 140 475 298 436 285
439 287 448 327 49 231 106 424 169 570 33 77 130 256 136 250 2 -2 -6 -45
-17 -97z m2622 -714 c-159 -77 -280 -349 -343 -773 -30 -205 -40 -353 -40
-601 0 -726 148 -1258 382 -1374 l52 -26 -50 0 c-108 0 -237 94 -337 245 -143
218 -221 438 -274 775 -22 143 -25 584 -5 725 74 520 264 904 506 1025 43 22
73 30 110 30 l51 -1 -52 -25z m4447 -134 c676 -18 1584 -57 1615 -69 11 -5
-40 -10 -125 -14 -80 -4 -289 -14 -465 -22 -775 -35 -1699 -55 -2575 -55
l-565 0 61 34 c70 37 150 94 179 127 l20 22 740 -7 c407 -3 909 -11 1115 -16z
m2105 -1380 c241 -558 439 -1021 442 -1028 4 -10 10 -9 26 5 11 10 18 13 16 7
-2 -6 -175 -311 -384 -678 -326 -574 -383 -667 -400 -663 -185 37 -5293 1153
-5287 1155 4 1 51 -4 103 -12 52 -7 95 -13 95 -12 1 0 12 435 23 966 12 531
25 1012 29 1070 6 95 15 0 91 -975 52 -677 88 -1084 95 -1091 12 -12 435 -78
444 -70 2 3 -12 495 -32 1093 -20 598 -36 1104 -35 1123 0 19 68 -477 149
-1104 81 -626 152 -1142 157 -1146 9 -10 431 -75 438 -68 2 2 -38 526 -90
1164 -53 637 -94 1167 -93 1177 2 11 96 -520 210 -1178 114 -659 209 -1199
211 -1201 6 -7 469 -76 473 -71 3 3 -72 559 -166 1237 -94 678 -170 1234 -168
1236 2 1 131 -561 287 -1249 156 -689 287 -1255 290 -1259 9 -11 430 -73 438
-65 3 4 -98 586 -226 1293 -128 707 -231 1288 -229 1289 2 2 160 -587 352
-1308 192 -722 350 -1314 352 -1316 5 -5 428 -70 432 -66 1 1 -129 608 -289
1349 -159 742 -289 1349 -287 1351 2 2 185 -609 407 -1358 222 -749 409 -1367
415 -1373 12 -12 425 -78 434 -69 3 3 -153 635 -347 1406 -194 771 -351 1403
-349 1404 2 2 214 -636 472 -1418 259 -782 472 -1425 476 -1429 7 -9 398 -70
420 -66 13 2 -63 281 -397 1458 -226 800 -411 1458 -410 1463 1 4 236 -640
521 -1430 286 -791 521 -1441 523 -1445 3 -6 53 43 202 204 l53 57 -406 1312
c-224 721 -405 1313 -404 1315 2 2 224 -546 493 -1217 269 -670 492 -1218 496
-1217 11 5 209 218 209 226 0 4 -160 502 -355 1107 -410 1270 -369 1141 -362
1135 3 -3 202 -462 442 -1020z m-11541 414 c3 -9 6 -36 6 -60 0 -72 29 -329
51 -454 37 -216 92 -349 156 -384 l28 -15 -38 -1 c-158 -1 -347 305 -416 677
-12 59 -25 141 -29 181 l-8 72 122 0 c102 0 123 -3 128 -16z m225 -211 c19
-126 49 -298 67 -382 18 -85 32 -156 30 -158 -2 -2 -15 14 -28 35 -97 145
-156 345 -178 592 -5 63 -10 121 -10 128 0 8 15 12 43 12 l42 0 34 -227z m811
214 c0 -95 49 -485 80 -632 53 -255 117 -394 212 -457 l41 -28 -35 0 c-112 0
-268 161 -365 378 -84 188 -136 393 -178 705 l-6 47 125 0 c99 0 126 -3 126
-13z m224 -19 c3 -18 20 -127 37 -243 32 -219 64 -386 98 -523 12 -44 21 -84
21 -89 -2 -34 -107 172 -143 278 -55 165 -97 398 -97 542 l0 67 40 0 c36 0 39
-2 44 -32z m1050 -40 c19 -207 77 -514 132 -694 47 -156 109 -294 174 -387 65
-95 115 -141 194 -179 l61 -29 -65 4 c-82 5 -157 41 -248 117 -223 186 -419
625 -486 1090 -10 63 -19 123 -21 133 -3 15 8 17 125 17 l127 0 7 -72z m235
-10 c55 -375 165 -768 278 -993 52 -105 53 -109 23 -80 -47 45 -154 209 -199
306 -99 215 -159 458 -196 792 l-6 57 44 0 44 0 12 -82z m2276 -463 c63 -393
129 -671 206 -865 17 -41 33 -82 35 -90 3 -8 -13 5 -36 30 -123 132 -228 408
-260 681 -13 112 -9 428 6 463 10 26 8 34 49 -219z m-807 -304 c7 -4 17 -39
23 -77 19 -137 76 -311 134 -410 14 -24 25 -46 25 -49 0 -4 -24 -4 -52 0 -112
14 -343 47 -346 50 -1 1 13 62 32 136 19 74 43 185 53 247 l18 112 50 0 c28 0
56 -4 63 -9z"/>
<path d="M7725 18394 c-1172 -207 -2231 -601 -3220 -1197 -1023 -617 -1912
-1422 -2640 -2389 -1148 -1525 -1798 -3383 -1843 -5270 -19 -756 35 -1404 174
-2097 317 -1581 1036 -3032 2119 -4278 159 -183 663 -688 845 -847 1434 -1253
3167 -2027 5025 -2246 602 -70 1353 -80 1945 -24 1970 184 3813 987 5298 2308
89 80 109 102 95 107 -10 3 -88 19 -174 34 l-157 28 -158 -133 c-1992 -1662
-4520 -2375 -7094 -1999 -1440 210 -2855 803 -4037 1690 -2321 1743 -3658
4471 -3599 7344 10 539 58 1006 152 1504 415 2199 1642 4164 3445 5517 1021
767 2191 1304 3448 1584 l95 21 116 112 c63 62 151 139 195 172 44 32 84 63
90 67 13 11 -26 8 -120 -8z"/>
<path d="M7075 17829 c-1405 -365 -2671 -1050 -3745 -2025 -190 -172 -542
-530 -705 -718 -1002 -1146 -1684 -2503 -1999 -3978 -222 -1036 -253 -2143
-91 -3195 353 -2284 1590 -4336 3456 -5733 2129 -1594 4852 -2139 7442 -1489
1126 282 2197 794 3132 1496 228 171 464 365 450 369 -6 2 -194 37 -420 79
-225 42 -747 141 -1159 222 l-748 146 -222 -111 c-353 -176 -652 -299 -1011
-415 -1524 -494 -3218 -450 -4712 121 -2423 927 -4161 3097 -4527 5652 -184
1281 -14 2597 486 3780 355 837 842 1567 1483 2219 439 446 876 795 1380 1102
129 79 132 81 150 132 157 438 520 837 957 1050 65 32 98 54 110 74 10 17 34
42 55 56 l39 27 17 145 c41 339 157 660 342 940 36 55 65 100 65 102 0 8 -51
-3 -225 -48z"/>
<path d="M16068 15397 l-87 -51 60 -63 c70 -75 105 -141 124 -229 12 -59 23
-76 123 -202 135 -169 293 -382 392 -529 l75 -111 70 -27 c95 -38 233 -105
328 -159 46 -26 76 -39 73 -30 -10 27 -187 307 -284 449 -211 310 -434 600
-670 873 -63 72 -115 132 -116 131 -1 0 -40 -23 -88 -52z"/>
<path d="M5514 15164 c-1373 -878 -2405 -2213 -2903 -3757 -248 -769 -356
-1551 -330 -2382 72 -2252 1237 -4334 3129 -5592 1018 -677 2177 -1069 3408
-1153 195 -13 712 -13 902 0 798 55 1524 225 2248 526 163 68 508 232 501 238
-2 2 -106 23 -231 46 l-226 43 -136 -57 c-649 -273 -1319 -437 -2046 -502
-238 -22 -828 -25 -1055 -6 -1163 97 -2211 452 -3159 1069 -1194 778 -2128
1938 -2624 3258 -221 589 -348 1146 -409 1795 -24 259 -24 890 0 1150 68 724
240 1413 513 2052 451 1056 1175 1989 2093 2696 80 62 203 151 273 199 136 92
138 95 138 187 0 22 9 90 20 151 10 60 17 111 16 112 -2 2 -57 -31 -122 -73z"/>
<path d="M16124 14759 c-52 -104 -195 -226 -336 -289 -46 -20 -48 -22 -48 -63
l0 -43 173 -1 c188 -1 351 -19 521 -58 60 -14 111 -24 112 -22 6 6 -326 453
-387 521 -4 5 -20 -16 -35 -45z"/>
<path d="M18410 10539 c-36 -98 -117 -274 -162 -353 l-40 -71 13 -178 c10
-154 14 -177 28 -173 9 3 73 10 142 17 l126 11 -4 47 c-19 268 -64 709 -77
755 -1 5 -13 -19 -26 -55z"/>
<path d="M18025 9845 c-99 -129 -94 -117 -54 -111 19 3 55 8 82 11 l47 6 -1
47 c0 26 -3 65 -7 86 l-7 39 -60 -78z"/>
<path d="M4728 4893 c6 -2 18 -2 25 0 6 3 1 5 -13 5 -14 0 -19 -2 -12 -5z"/>
<path d="M4771 4886 c6 -5 418 -94 1324 -286 2316 -491 6972 -1404 10504
-2060 2424 -450 4640 -854 4647 -847 2 2 -823 218 -1834 480 -2124 550 -2185
564 -3852 876 -382 72 -832 157 -1000 190 -384 76 -2383 439 -3790 690 -1729
308 -4146 700 -5615 911 -334 48 -394 55 -384 46z"/>
</g>
</svg>
